<svg xmlns="http://www.w3.org/2000/svg" viewBox="0 0 800 500">
  <!-- Browser chrome -->
  <rect width="800" height="500" rx="12" fill="#1e1e2e"/>
  <rect x="0" y="0" width="800" height="36" rx="12" fill="#2a2a3c"/>
  <rect x="0" y="20" width="800" height="16" fill="#2a2a3c"/>
  <circle cx="20" cy="18" r="6" fill="#ff5f57"/>
  <circle cx="40" cy="18" r="6" fill="#febc2e"/>
  <circle cx="60" cy="18" r="6" fill="#28c840"/>
  <rect x="100" y="10" width="400" height="16" rx="8" fill="#3a3a4c"/>
  <!-- Content background -->
  <rect x="0" y="36" width="800" height="464" rx="0 0 12 12" fill="#1a1a2e"/>
  <!-- Grid cards - testimonial layout -->
  <!-- Card 1 - large -->
  <rect x="40" y="60" width="350" height="180" rx="12" fill="#7b68ee" opacity="0.8"/>
  <rect x="60" y="80" width="20" height="16" rx="3" fill="white" opacity="0.9"/>
  <rect x="60" y="110" width="280" height="8" rx="2" fill="white" opacity="0.4"/>
  <rect x="60" y="125" width="250" height="8" rx="2" fill="white" opacity="0.4"/>
  <rect x="60" y="140" width="200" height="8" rx="2" fill="white" opacity="0.4"/>
  <circle cx="75" cy="200" r="16" fill="white" opacity="0.3"/>
  <rect x="100" y="192" width="80" height="8" rx="2" fill="white" opacity="0.5"/>
  <rect x="100" y="205" width="60" height="6" rx="2" fill="white" opacity="0.3"/>
  <!-- Card 2 -->
  <rect x="410" y="60" width="350" height="110" rx="12" fill="#2a2a4a"/>
  <rect x="430" y="80" width="20" height="16" rx="3" fill="white" opacity="0.7"/>
  <rect x="430" y="110" width="280" height="8" rx="2" fill="white" opacity="0.3"/>
  <rect x="430" y="125" width="220" height="8" rx="2" fill="white" opacity="0.3"/>
  <circle cx="445" cy="148" r="12" fill="white" opacity="0.2"/>
  <rect x="465" y="142" width="60" height="6" rx="2" fill="white" opacity="0.3"/>
  <!-- Card 3 -->
  <rect x="410" y="190" width="350" height="50" rx="12" fill="#2a2a4a"/>
  <rect x="430" y="205" width="250" height="8" rx="2" fill="white" opacity="0.3"/>
  <rect x="430" y="220" width="180" height="6" rx="2" fill="white" opacity="0.2"/>
  <!-- Card 4 -->
  <rect x="40" y="260" width="200" height="120" rx="12" fill="#2a2a4a"/>
  <rect x="60" y="280" width="150" height="8" rx="2" fill="white" opacity="0.3"/>
  <rect x="60" y="295" width="120" height="8" rx="2" fill="white" opacity="0.3"/>
  <circle cx="75" cy="345" r="12" fill="white" opacity="0.2"/>
  <rect x="95" y="339" width="60" height="6" rx="2" fill="white" opacity="0.3"/>
  <!-- Card 5 - large -->
  <rect x="260" y="260" width="500" height="120" rx="12" fill="#7b68ee" opacity="0.5"/>
  <rect x="280" y="280" width="20" height="16" rx="3" fill="white" opacity="0.7"/>
  <rect x="280" y="310" width="420" height="8" rx="2" fill="white" opacity="0.3"/>
  <rect x="280" y="325" width="380" height="8" rx="2" fill="white" opacity="0.3"/>
  <rect x="280" y="340" width="300" height="8" rx="2" fill="white" opacity="0.3"/>
  <circle cx="295" cy="365" r="12" fill="white" opacity="0.2"/>
  <rect x="315" y="359" width="80" height="6" rx="2" fill="white" opacity="0.3"/>
  <text x="400" y="460" text-anchor="middle" font-family="Inter, sans-serif" font-weight="500" font-size="14" fill="#a1a1aa">Testimonials Grid</text>
</svg>
